<?xml version="1.0" standalone="no"?>
<!DOCTYPE svg PUBLIC "-//W3C//DTD SVG 20010904//EN"
 "http://www.w3.org/TR/2001/REC-SVG-20010904/DTD/svg10.dtd">
<svg version="1.0" xmlns="http://www.w3.org/2000/svg"
 width="300.000000pt" height="300.000000pt" viewBox="0 0 300.000000 300.000000"
 preserveAspectRatio="xMidYMid meet">
<metadata>
Created by potrace 1.11, written by Peter Selinger 2001-2013
</metadata>
<g transform="translate(0.000000,300.000000) scale(0.100000,-0.100000)"
fill="#000000" stroke="none">
<path d="M1337 2983 c-355 -60 -640 -305 -756 -649 -52 -156 -60 -345 -20
-521 23 -104 98 -264 162 -348 41 -53 141 -153 196 -195 116 -89 305 -167 451
-184 59 -8 193 -9 225 -2 11 2 43 7 70 10 334 47 645 324 749 666 84 277 42
565 -119 809 -142 215 -390 376 -645 417 -78 12 -232 11 -313 -3z"/>
<path d="M2179 1083 c-1 -5 0 -12 1 -18 1 -5 4 -165 7 -355 2 -190 8 -349 13
-354 16 -17 27 4 29 55 1 73 40 209 60 209 3 0 16 -28 29 -62 33 -92 72 -128
109 -105 8 5 17 -3 26 -25 30 -71 75 -76 119 -13 31 45 55 137 45 177 -9 33
-78 68 -139 71 -34 2 -42 -1 -39 -13 4 -19 4 -21 3 -107 -1 -40 -6 -73 -11
-73 -23 0 -63 59 -82 122 -25 80 -47 100 -79 68 -12 -12 -25 -32 -31 -47 -5
-14 -12 -24 -14 -21 -2 2 -5 115 -5 251 -1 237 -2 247 -21 247 -10 0 -20 -3
-20 -7z m394 -496 c15 -17 17 -31 12 -62 -7 -44 -25 -72 -25 -39 0 10 -11 45
-24 77 l-24 58 21 -7 c12 -3 30 -15 40 -27z m-58 -130 c4 -44 3 -47 -15 -37
-11 6 -21 21 -22 33 -4 54 -4 113 1 121 7 15 32 -64 36 -117z"/>
<path d="M303 1048 c-148 -80 -236 -267 -229 -488 3 -96 31 -161 81 -184 19
-9 45 -15 58 -12 73 13 185 105 229 189 38 70 40 79 21 75 -9 -2 -30 -26 -47
-54 -40 -66 -63 -93 -106 -125 -70 -52 -139 -47 -175 14 -41 69 -12 306 51
413 36 62 116 130 174 149 54 18 62 29 28 39 -35 9 -40 8 -85 -16z"/>
<path d="M1792 1015 c-41 -18 -59 -36 -73 -72 -39 -100 24 -203 211 -341 41
-31 77 -57 79 -59 3 -2 -21 -29 -52 -61 -88 -88 -116 -144 -91 -180 12 -18 19
-19 56 -10 76 17 179 89 196 138 10 26 -3 80 -19 80 -21 0 -6 30 25 49 19 12
39 28 46 36 11 13 8 13 -28 1 -23 -8 -51 -20 -62 -26 -21 -11 -43 -3 -85 32
-5 5 -39 30 -76 57 -134 100 -200 202 -168 260 32 59 137 80 209 42 43 -22 49
-18 24 18 -34 47 -126 65 -192 36z m276 -525 c40 -43 -11 -116 -101 -146 -60
-20 -76 -10 -53 33 13 25 120 133 131 133 3 0 13 -9 23 -20z"/>
<path d="M903 1008 c-18 -4 -34 -17 -38 -28 -4 -11 -10 -20 -14 -20 -5 0 -12
-15 -16 -32 -4 -18 -9 -40 -12 -48 -3 -11 -12 -172 -13 -221 0 -4 -15 -7 -32
-7 -43 0 -61 -5 -70 -17 -15 -20 -7 -23 47 -20 31 1 57 0 59 -4 5 -7 19 -254
17 -289 -1 -17 4 -23 17 -20 19 4 20 17 7 206 -6 92 -5 112 6 113 52 3 102 8
104 11 2 2 0 10 -5 18 -6 10 -25 14 -60 13 l-51 -1 2 81 c4 153 33 227 91 227
22 0 33 -8 49 -35 23 -38 39 -45 39 -16 0 50 -75 103 -127 89z"/>
<path d="M1141 986 c-31 -33 -52 -123 -55 -235 l-3 -95 -39 -4 c-52 -4 -64 -9
-64 -26 0 -11 13 -13 55 -11 l55 3 1 -37 c0 -20 2 -61 5 -91 2 -30 5 -84 7
-120 2 -52 6 -65 19 -68 16 -3 17 6 11 100 -3 57 -6 129 -7 162 l-1 59 53 2
c29 1 56 5 59 9 15 14 -19 29 -67 30 l-51 0 5 96 c8 150 33 210 87 210 23 0
34 -7 47 -30 22 -38 42 -46 42 -17 0 13 -14 38 -31 55 -40 41 -94 44 -128 8z"/>
<path d="M2669 672 c-2 -9 -2 -7 5 -67 9 -72 16 -225 19 -422 1 -125 5 -174
14 -177 7 -3 15 -1 18 4 3 5 4 87 3 182 l-3 172 44 13 c85 25 153 101 167 191
5 33 3 47 -11 62 -41 46 -123 1 -184 -100 -11 -19 -21 -28 -21 -20 -1 18 -9
83 -16 127 -4 27 -32 55 -35 35z m234 -81 c5 -24 -18 -85 -45 -116 -25 -29
-87 -65 -113 -65 -27 0 -17 43 25 107 21 33 51 70 66 80 30 22 61 20 67 -6z"/>
<path d="M519 663 c-1 -5 0 -12 1 -18 2 -5 3 -55 4 -110 1 -112 16 -150 62
-161 34 -9 68 25 94 93 27 72 26 126 -2 153 -34 31 -156 64 -159 43z m133 -70
c21 -18 23 -59 7 -100 l-12 -28 -12 40 c-32 104 -27 128 17 88z m-69 -68 c9
-33 18 -70 22 -81 5 -15 2 -23 -9 -27 -23 -9 -43 38 -41 93 5 102 6 103 28 15z"/>
<path d="M1550 649 c-21 -13 -41 -40 -60 -82 -43 -94 -154 -182 -199 -157 -28
14 -26 21 10 49 68 54 114 155 87 189 -6 6 -26 12 -46 12 -65 0 -122 -88 -122
-189 0 -34 6 -49 29 -72 50 -49 105 -36 179 45 l42 46 0 -31 c0 -20 10 -40 29
-60 51 -50 104 -36 184 50 76 81 51 86 -28 6 -32 -33 -74 -49 -117 -46 -29 2
-21 16 36 74 59 58 88 125 70 155 -18 27 -59 32 -94 11z m-187 -26 c2 -5 0
-22 -4 -38 -9 -31 -84 -113 -95 -103 -10 11 14 79 41 114 25 32 49 43 58 27z
m249 -5 c9 -27 -6 -58 -48 -99 -24 -23 -46 -41 -49 -38 -9 10 17 84 41 117 26
33 49 41 56 20z"/>
</g>
</svg>
